HIERARCHY
ROOT hip
{
  OFFSET 0 0 0
  CHANNELS 6 Xposition Yposition Zposition Zrotation Yrotation Xrotation
  JOINT abdomen
  {
    OFFSET 0 20.6881 -0.73152
    CHANNELS 3 Zrotation Xrotation Yrotation
    JOINT chest
    {
      OFFSET 0 11.7043 -0.48768
      CHANNELS 3 Zrotation Xrotation Yrotation
      JOINT neck
      {
        OFFSET 0 22.1894 -2.19456
        CHANNELS 3 Zrotation Xrotation Yrotation
        JOINT head
        {
          OFFSET -0.24384 7.07133 1.2192
          CHANNELS 3 Zrotation Xrotation Yrotation
          JOINT leftEye
          {
            OFFSET 4.14528 8.04674 8.04672
            CHANNELS 3 Zrotation Xrotation Yrotation
            End Site
            {
              OFFSET 1 0 0
            }
          }
          JOINT rightEye
          {
            OFFSET -3.6576 8.04674 8.04672
            CHANNELS 3 Zrotation Xrotation Yrotation
            End Site
            {
              OFFSET 1 0 0
            }
          }
        }
      }
      JOINT rCollar
      {
        OFFSET -2.68224 19.2634 -4.8768
        CHANNELS 3 Zrotation Xrotation Yrotation
        JOINT rShldr
        {
          OFFSET -8.77824 -1.95073 1.46304
          CHANNELS 3 Zrotation Xrotation Yrotation
          JOINT rForeArm
          {
            OFFSET -28.1742 -1.7115 0.48768
            CHANNELS 3 Zrotation Xrotation Yrotation
            JOINT rHand
            {
              OFFSET -22.5879 0.773209 7.07136
              CHANNELS 3 Zrotation Xrotation Yrotation
              JOINT rThumb1
              {
                OFFSET -1.2192 -0.487915 3.41376
                CHANNELS 3 Zrotation Xrotation Yrotation
                JOINT rThumb2
                {
                  OFFSET -3.37035 -0.52449 3.41376
                  CHANNELS 3 Zrotation Xrotation Yrotation
                  End Site
                  {
                    OFFSET -1.78271 -1.18214 1.43049
                  }
                }
              }
              JOINT rIndex1
              {
                OFFSET -7.75947 0.938293 5.60832
                CHANNELS 3 Zrotation Xrotation Yrotation
                JOINT rIndex2
                {
                  OFFSET -2.54057 -0.884171 1.56538
                  CHANNELS 3 Zrotation Xrotation Yrotation
                  End Site
                  {
                    OFFSET -1.62519 -0.234802 1.16502
                  }
                }
              }
              JOINT rMid1
              {
                OFFSET -8.24714 1.18213 3.41376
                CHANNELS 3 Zrotation Xrotation Yrotation
                JOINT rMid2
                {
                  OFFSET -3.10165 -0.590103 1.0647
                  CHANNELS 3 Zrotation Xrotation Yrotation
                  End Site
                  {
                    OFFSET -2.48547 -0.328903 0.83742
                  }
                }
              }
              JOINT rRing1
              {
                OFFSET -8.82822 0.546677 1.51678
                CHANNELS 3 Zrotation Xrotation Yrotation
                JOINT rRing2
                {
                  OFFSET -2.60934 -0.819778 -0.0198488
                  CHANNELS 3 Zrotation Xrotation Yrotation
                  End Site
                  {
                    OFFSET -2.33842 -0.294052 0.168128
                  }
                }
              }
              JOINT rPinky1
              {
                OFFSET -8.27202 -0.0477905 -0.4584
                CHANNELS 3 Zrotation Xrotation Yrotation
                JOINT rPinky2
                {
                  OFFSET -1.82734 -0.647385 -0.700984
                  CHANNELS 3 Zrotation Xrotation Yrotation
                  End Site
                  {
                    OFFSET -1.69225 -0.51767 -0.607171
                  }
                }
              }
            }
          }
        }
      }
      JOINT lCollar
      {
        OFFSET 2.68224 19.2634 -4.8768
        CHANNELS 3 Zrotation Xrotation Yrotation
        JOINT lShldr
        {
          OFFSET 8.77824 -1.95073 1.46304
          CHANNELS 3 Zrotation Xrotation Yrotation
          JOINT lForeArm
          {
            OFFSET 28.1742 -1.7115 0.48768
            CHANNELS 3 Zrotation Xrotation Yrotation
            JOINT lHand
            {
              OFFSET 22.5879 0.773209 7.07136
              CHANNELS 3 Zrotation Xrotation Yrotation
              JOINT lThumb1
              {
                OFFSET 1.2192 -0.487915 3.41376
                CHANNELS 3 Zrotation Xrotation Yrotation
                JOINT lThumb2
                {
                  OFFSET 3.37035 -0.52449 3.41376
                  CHANNELS 3 Zrotation Xrotation Yrotation
                  End Site
                  {
                    OFFSET 1.78271 -1.18214 1.43049
                  }
                }
              }
              JOINT lIndex1
              {
                OFFSET 7.75947 0.938293 5.60832
                CHANNELS 3 Zrotation Xrotation Yrotation
                JOINT lIndex2
                {
                  OFFSET 2.54057 -0.884171 1.56538
                  CHANNELS 3 Zrotation Xrotation Yrotation
                  End Site
                  {
                    OFFSET 1.62519 -0.234802 1.16502
                  }
                }
              }
              JOINT lMid1
              {
                OFFSET 8.24714 1.18213 3.41376
                CHANNELS 3 Zrotation Xrotation Yrotation
                JOINT lMid2
                {
                  OFFSET 3.10165 -0.590103 1.0647
                  CHANNELS 3 Zrotation Xrotation Yrotation
                  End Site
                  {
                    OFFSET 2.48547 -0.328903 0.83742
                  }
                }
              }
              JOINT lRing1
              {
                OFFSET 8.82822 0.546677 1.51678
                CHANNELS 3 Zrotation Xrotation Yrotation
                JOINT lRing2
                {
                  OFFSET 2.60934 -0.819778 -0.0198488
                  CHANNELS 3 Zrotation Xrotation Yrotation
                  End Site
                  {
                    OFFSET 2.33842 -0.294052 0.168128
                  }
                }
              }
              JOINT lPinky1
              {
                OFFSET 8.27202 -0.0477905 -0.4584
                CHANNELS 3 Zrotation Xrotation Yrotation
                JOINT lPinky2
                {
                  OFFSET 1.82734 -0.647385 -0.700984
                  CHANNELS 3 Zrotation Xrotation Yrotation
                  End Site
                  {
                    OFFSET 1.69225 -0.51767 -0.607171
                  }
                }
              }
            }
          }
        }
      }
    }
  }
  JOINT rButtock
  {
    OFFSET -8.77824 4.35084 1.2192
    CHANNELS 3 Zrotation Xrotation Yrotation
    JOINT rThigh
    {
      OFFSET 0 -1.70687 -2.19456
      CHANNELS 3 Zrotation Xrotation Yrotation
      JOINT rShin
      {
        OFFSET 0 -36.8199 0.73152
        CHANNELS 3 Zrotation Xrotation Yrotation
        JOINT rFoot
        {
          OFFSET 0.73152 -45.1104 -5.12064
          CHANNELS 3 Zrotation Xrotation Yrotation
          End Site
          {
            OFFSET -1.1221 -3.69964 12.103
          }
        }
      }
    }
  }
  JOINT lButtock
  {
    OFFSET 8.77824 4.35084 1.2192
    CHANNELS 3 Zrotation Xrotation Yrotation
    JOINT lThigh
    {
      OFFSET 0 -1.70687 -2.19456
      CHANNELS 3 Zrotation Xrotation Yrotation
      JOINT lShin
      {
        OFFSET 0 -36.8199 0.73152
        CHANNELS 3 Zrotation Xrotation Yrotation
        JOINT lFoot
        {
          OFFSET -0.73152 -45.1104 -5.12064
          CHANNELS 3 Zrotation Xrotation Yrotation
          End Site
          {
            OFFSET 1.1221 -3.69964 12.103
          }
        }
      }
    }
  }
}
MOTION
Frames:	4
Frame Time:	0.00833333
-25.2193 85.2982 7.13234 0.0 0.0 0.0 0.984352 -0.00436095 0.0272513 0.271544 -0.00455351 0.0470444 4.88524e-14 -1.59028e-15 -2.36057e-16 1.46349e-13 3.18055e-15 -7.22147e-16 -0.0 0.0 0.0 -0.0 0.0 0.0 2.44498e-14 -3.18366e-17 4.96962e-17 5.14589e-13 -5.90142e-16 0.0 8.83429e-12 -2.6665e-12 -1.36764e-13 1.01051e-10 2.49805e-12 -3.21236e-13 2.38371e-10 -3.68133e-13 -9.92333e-13 4.1166e-10 -6.36111e-13 -1.72068e-12 2.38376e-10 -3.67354e-13 -1.00187e-12 7.73091 5.47488 0.417314 2.3837e-10 -3.68249e-13 -9.92333e-13 2.90554 0.965183 0.102902 2.38381e-10 -3.6805e-13 -9.89948e-13 10.2786 0.731801 0.0259123 2.38365e-10 -3.65764e-13 -9.79611e-13 2.22167 -0.733487 -0.20892 2.43534e-14 -3.31955e-17 -2.98177e-16 5.1065e-13 -5.96354e-16 -1.39149e-15 8.82649e-12 2.617e-12 -1.145e-13 1.01062e-10 -2.77923e-12 -3.18055e-13 2.38383e-10 -3.55255e-13 -9.85972e-13 4.11684e-10 -6.13847e-13 -1.71034e-12 2.38379e-10 -3.55427e-13 -9.85972e-13 -7.73091 5.47488 -0.417314 2.38383e-10 -3.5493e-13 -9.92333e-13 -2.90554 0.965183 -0.102902 2.38378e-10 -3.5493e-13 -9.89153e-13 -10.2786 0.731801 -0.0259123 2.38389e-10 -3.52246e-13 -9.98694e-13 -2.22167 -0.733487 0.20892 -2.03217e-16 0.0 -3.88251e-19 1.24886 -5.45297 -0.109165 6.89405e-05 4.32233 0.0238775 -0.510717 1.12952 0.08124 2.03217e-16 0.0 3.88251e-19 0.24971 -1.91924 0.0129225 0.00928337 -2.07855 0.0766818 0.496212 3.99654 -0.137939
-19.6043 84.5877 -4.45693 148.506 70.7111 152.782 -2.63444 -1.01434 1.88943 1.42677 1.56771 0.571552 3.98755 1.99112 4.75428 -6.03382 1.44978 9.76985 -0.0 0.0 0.0 -0.0 0.0 0.0 -5.21314e-14 -2.31362e-13 -1.12648e-13 22.133 5.1737 0.557288 -4.18646 -1.89556 6.54603 0.0088662 -2.09373 -0.29355 1.31754e-09 2.06591e-12 -6.35797e-10 2.27901e-09 3.6684e-12 -1.09461e-09 1.31755e-09 2.06629e-12 -6.35814e-10 7.73091 5.47488 0.417314 1.31754e-09 2.0648e-12 -6.35799e-10 2.90554 0.965183 0.102902 1.31755e-09 2.06496e-12 -6.35797e-10 10.2786 0.731801 0.0259123 1.31754e-09 2.06819e-12 -6.35788e-10 2.22167 -0.733487 -0.20892 -5.22421e-14 -2.31363e-13 -1.12954e-13 -22.8329 3.19178 -2.19694 3.04776 -1.2126 -4.93098 -0.000112201 -0.23525 0.0330612 1.34495e-09 1.90729e-10 8.45655e-10 2.32461e-09 3.27352e-10 1.46045e-09 1.34494e-09 1.90729e-10 8.45657e-10 -7.73091 5.47488 -0.417314 1.34495e-09 1.90728e-10 8.45648e-10 -2.90554 0.965183 -0.102902 1.34494e-09 1.90729e-10 8.45653e-10 -10.2786 0.731801 -0.0259123 1.34495e-09 1.90732e-10 8.45644e-10 -2.22167 -0.733487 0.20892 -2.03217e-16 0.0 -3.88251e-19 -3.64355 -5.30034 -0.104723 0.0405822 8.73613 0.187115 -1.69797 -5.79165 -8.42383 2.03217e-16 0.0 3.88251e-19 -0.691552 -2.82171 -2.43727 -0.00508973 1.1117 -0.022268 0.796037 -0.0530009 4.61729
-19.6201 84.6151 -4.37242 149.128 70.9972 153.557 -6.38916 -2.07266 3.86712 2.62074 3.23157 1.12883 7.88516 4.07459 9.82715 -13.0321 2.82519 20.1798 -0.0 0.0 0.0 -0.0 0.0 0.0 -1.36741e-13 -4.99138e-13 -2.57547e-13 45.4145 10.636 1.16204 -8.14801 -3.81943 13.4945 -0.00521528 -4.32333 -0.607489 2.59319e-09 6.35498e-11 -1.35062e-09 4.48651e-09 1.10237e-10 -2.32529e-09 2.5932e-09 6.35497e-11 -1.35064e-09 7.73091 5.47488 0.417314 2.59319e-09 6.35476e-11 -1.35062e-09 2.90554 0.965183 0.102902 2.59319e-09 6.35477e-11 -1.35062e-09 10.2786 0.731801 0.0259123 2.59318e-09 6.35519e-11 -1.35061e-09 2.22167 -0.733487 -0.20892 -1.36868e-13 -4.99139e-13 -2.57808e-13 -46.7086 6.52059 -4.54577 6.04422 -2.46489 -10.1517 6.42325e-05 -0.482589 0.0678233 2.68337e-09 1.54796e-10 1.65365e-09 4.63835e-09 2.61802e-10 2.8554e-09 2.68336e-09 1.54797e-10 1.65366e-09 -7.73091 5.47488 -0.417314 2.68337e-09 1.54795e-10 1.65364e-09 -2.90554 0.965183 -0.102902 2.68336e-09 1.54798e-10 1.65365e-09 -10.2786 0.731801 -0.0259123 2.68337e-09 1.54801e-10 1.65364e-09 -2.22167 -0.733487 0.20892 -2.03217e-16 0.0 -3.88251e-19 -8.81844 -5.14374 -0.104295 0.055333 13.4092 0.365514 -5.20107 -12.6302 -17.7636 2.03217e-16 0.0 3.88251e-19 -1.77205 -3.764 -5.03678 -0.00830982 4.47423 -0.12697 1.84158 -4.27487 9.67006
-19.6453 84.6578 -4.29248 149.846 71.2241 154.451 -9.67519 -3.02139 5.62074 3.65062 4.71058 1.62542 10.9784 5.80878 14.3293 -19.5157 3.84781 29.3728 -0.0 0.0 0.0 -0.0 0.0 0.0 -2.05294e-13 -6.94022e-13 -3.38042e-13 66.0874 15.5151 1.72804 -11.2834 -5.39039 19.7181 -0.0380919 -6.28053 -0.885377 3.47589e-09 6.93402e-12 -1.90541e-09 6.01371e-09 1.22775e-11 -3.28039e-09 3.4759e-09 6.93358e-12 -1.90544e-09 7.73091 5.47488 0.417314 3.47589e-09 6.93091e-12 -1.90541e-09 2.90554 0.965183 0.102902 3.47589e-09 6.93096e-12 -1.90541e-09 10.2786 0.731801 0.0259123 3.47587e-09 6.9361e-12 -1.9054e-09 2.22167 -0.733487 -0.20892 -2.05433e-13 -6.94023e-13 -3.38264e-13 -67.7575 9.51866 -6.67288 8.52385 -3.53018 -14.8184 0.000477923 -0.705749 0.0991904 3.55808e-09 5.72897e-10 2.53894e-09 6.15047e-09 9.83283e-10 4.38477e-09 3.55807e-09 5.72897e-10 2.53894e-09 -7.73091 5.47488 -0.417314 3.55807e-09 5.72894e-10 2.53893e-09 -2.90554 0.965183 -0.102902 3.55807e-09 5.72898e-10 2.53894e-09 -10.2786 0.731801 -0.0259123 3.55808e-09 5.72901e-10 2.53893e-09 -2.22167 -0.733487 0.20892 -2.03217e-16 0.0 -3.88251e-19 -13.4284 -4.99508 -0.0958458 0.0427261 17.5632 0.532015 -10.2657 -17.8524 -26.6823 2.03217e-16 0.0 3.88251e-19 -2.80548 -4.59636 -7.35255 -0.000629472 7.49214 -0.221949 3.40463 -7.90446 14.2654
